<?xml version="1.0" encoding="UTF-8"?>
<svg xmlns="http://www.w3.org/2000/svg" xmlns:xlink="http://www.w3.org/1999/xlink" width="51pt" height="30pt" viewBox="0 0 51 30" version="1.1">
<g id="surface1">
<path style=" stroke:none;fill-rule:nonzero;fill:rgb(0%,0%,0%);fill-opacity:1;" d="M 14.761719 3.628906 C 14.585938 3.679688 14.476562 3.765625 14.375 3.921875 C 14.242188 4.125 14.234375 5.71875 14.371094 6.179688 C 14.558594 6.820312 14.976562 7.28125 15.605469 7.550781 L 15.953125 7.703125 L 25.074219 7.730469 C 32.464844 7.753906 34.222656 7.769531 34.328125 7.835938 C 34.640625 8.019531 34.769531 8.53125 34.59375 8.882812 C 34.550781 8.976562 34.429688 9.109375 34.328125 9.183594 L 34.140625 9.316406 L 25.101562 9.347656 L 16.066406 9.375 L 15.753906 9.53125 C 15.328125 9.746094 14.976562 10.109375 14.765625 10.558594 C 14.609375 10.902344 14.589844 10.992188 14.574219 11.636719 L 14.550781 12.347656 L 13.578125 12.347656 C 12.535156 12.347656 12.257812 12.398438 11.867188 12.652344 C 11.433594 12.929688 11.15625 13.34375 11.050781 13.847656 C 11.003906 14.078125 10.992188 15.554688 11.003906 19.328125 L 11.023438 24.492188 L 11.207031 24.875 C 11.414062 25.308594 11.707031 25.585938 12.160156 25.800781 L 12.4375 25.933594 L 38.5625 25.933594 L 38.839844 25.800781 C 39.292969 25.585938 39.585938 25.308594 39.792969 24.875 L 39.976562 24.492188 L 39.996094 19.328125 C 40.007812 15.554688 39.996094 14.078125 39.949219 13.847656 C 39.800781 13.148438 39.296875 12.613281 38.617188 12.425781 C 38.386719 12.363281 36.3125 12.347656 27.0625 12.347656 L 15.796875 12.347656 L 15.820312 11.78125 C 15.84375 11.132812 15.945312 10.898438 16.261719 10.726562 C 16.449219 10.621094 16.785156 10.617188 25.300781 10.617188 C 32.859375 10.617188 34.1875 10.605469 34.453125 10.527344 C 35.078125 10.363281 35.707031 9.738281 35.875 9.117188 C 36.121094 8.238281 35.78125 7.273438 35.046875 6.785156 C 34.453125 6.378906 35.054688 6.402344 25.132812 6.402344 C 16.722656 6.402344 16.167969 6.398438 15.980469 6.300781 C 15.621094 6.117188 15.554688 5.917969 15.539062 4.902344 C 15.519531 4.136719 15.5 3.992188 15.40625 3.855469 C 15.273438 3.664062 14.976562 3.554688 14.761719 3.628906 Z M 38.476562 13.757812 C 38.542969 13.824219 38.628906 13.925781 38.664062 13.992188 C 38.742188 14.132812 38.769531 23.863281 38.699219 24.183594 C 38.667969 24.300781 38.578125 24.449219 38.492188 24.511719 L 38.347656 24.632812 L 12.652344 24.632812 L 12.507812 24.511719 C 12.421875 24.449219 12.332031 24.300781 12.300781 24.183594 C 12.273438 24.0625 12.257812 21.789062 12.261719 19 L 12.269531 14.023438 L 12.433594 13.851562 C 12.523438 13.757812 12.660156 13.667969 12.746094 13.65625 C 12.824219 13.644531 18.621094 13.632812 25.617188 13.636719 C 38.246094 13.644531 38.351562 13.644531 38.476562 13.757812 Z M 38.476562 13.757812 "/>
<path style=" stroke:none;fill-rule:nonzero;fill:rgb(0%,0%,0%);fill-opacity:1;" d="M 13.167969 14.5625 L 12.976562 14.757812 L 12.976562 19.089844 C 12.976562 23.902344 12.960938 23.695312 13.34375 23.863281 C 13.632812 23.984375 30.847656 23.984375 31.136719 23.863281 C 31.523438 23.695312 31.507812 23.894531 31.507812 19.152344 C 31.507812 14.539062 31.511719 14.671875 31.210938 14.457031 C 31.097656 14.375 30.164062 14.367188 22.226562 14.367188 L 13.363281 14.367188 Z M 15.808594 16.382812 L 15.808594 17.132812 L 14.222656 17.132812 L 14.222656 15.632812 L 15.808594 15.632812 Z M 18.757812 16.382812 L 18.757812 17.140625 L 17.921875 17.125 L 17.085938 17.105469 L 17.066406 16.449219 C 17.0625 16.085938 17.066406 15.75 17.078125 15.710938 C 17.101562 15.652344 17.304688 15.632812 17.933594 15.632812 L 18.757812 15.632812 Z M 21.703125 16.382812 L 21.703125 17.132812 L 20.058594 17.132812 L 20.058594 15.632812 L 21.703125 15.632812 Z M 24.648438 16.382812 L 24.648438 17.132812 L 23.007812 17.132812 L 23.007812 15.632812 L 24.648438 15.632812 Z M 27.625 16.382812 L 27.625 17.105469 L 26.792969 17.125 L 25.953125 17.140625 L 25.953125 15.628906 L 26.792969 15.644531 L 27.625 15.664062 Z M 30.230469 16.382812 L 30.230469 17.105469 L 29.570312 17.125 L 28.898438 17.140625 L 28.898438 15.628906 L 29.570312 15.644531 L 30.230469 15.664062 Z M 14.664062 19.136719 L 14.648438 19.875 L 14.25 19.875 L 14.234375 19.136719 L 14.21875 18.402344 L 14.683594 18.402344 Z M 17.398438 19.152344 L 17.398438 19.902344 L 15.921875 19.902344 L 15.921875 18.402344 L 17.398438 18.402344 Z M 20.386719 19.136719 L 20.371094 19.875 L 19.539062 19.890625 L 18.699219 19.910156 L 18.699219 18.402344 L 20.40625 18.402344 Z M 23.347656 19.152344 L 23.347656 19.910156 L 22.511719 19.890625 L 21.675781 19.875 L 21.65625 19.136719 L 21.640625 18.402344 L 23.347656 18.402344 Z M 26.292969 19.152344 L 26.292969 19.910156 L 25.460938 19.890625 L 24.621094 19.875 L 24.605469 19.136719 L 24.585938 18.402344 L 26.292969 18.402344 Z M 30.230469 19.152344 L 30.230469 19.875 L 28.917969 19.890625 L 27.597656 19.902344 L 27.597656 18.402344 L 28.917969 18.414062 L 30.230469 18.433594 Z M 15.796875 21.90625 C 15.78125 22.570312 15.769531 22.644531 15.683594 22.636719 C 15.628906 22.632812 15.277344 22.625 14.902344 22.621094 L 14.222656 22.617188 L 14.222656 21.171875 L 15.816406 21.171875 Z M 18.757812 21.894531 L 18.757812 22.617188 L 17.964844 22.617188 C 17.527344 22.617188 17.152344 22.617188 17.128906 22.617188 C 17.101562 22.617188 17.078125 22.292969 17.066406 21.894531 L 17.050781 21.171875 L 18.757812 21.171875 Z M 24.636719 21.894531 L 24.621094 22.617188 L 22.355469 22.621094 L 20.089844 22.621094 L 20.058594 22.285156 C 20.042969 22.101562 20.039062 21.777344 20.046875 21.558594 L 20.070312 21.171875 L 24.65625 21.171875 Z M 27.652344 21.886719 L 27.652344 22.609375 L 26.859375 22.625 C 26.421875 22.636719 26.039062 22.632812 26.011719 22.625 C 25.976562 22.617188 25.953125 22.308594 25.953125 21.886719 L 25.953125 21.171875 L 27.652344 21.171875 Z M 30.261719 21.894531 L 30.261719 22.617188 L 28.898438 22.617188 L 28.898438 21.171875 L 30.261719 21.171875 Z M 30.261719 21.894531 "/>
<path style=" stroke:none;fill-rule:nonzero;fill:rgb(0%,0%,0%);fill-opacity:1;" d="M 32.71875 14.5625 L 32.527344 14.757812 L 32.527344 19.136719 C 32.527344 23.941406 32.503906 23.664062 32.867188 23.855469 C 33.105469 23.984375 37.359375 23.984375 37.65625 23.863281 C 38.039062 23.695312 38.023438 23.902344 38.023438 19.089844 L 38.023438 14.757812 L 37.832031 14.5625 L 37.636719 14.367188 L 32.910156 14.367188 Z M 34.59375 16.382812 L 34.59375 17.105469 L 34.1875 17.125 L 33.773438 17.140625 L 33.773438 15.628906 L 34.1875 15.644531 L 34.59375 15.664062 Z M 36.777344 16.382812 L 36.777344 17.132812 L 35.871094 17.132812 L 35.871094 15.632812 L 36.777344 15.632812 Z M 34.59375 19.152344 L 34.59375 19.875 L 34.1875 19.890625 L 33.773438 19.910156 L 33.773438 18.398438 L 34.1875 18.414062 L 34.59375 18.433594 Z M 36.765625 19.136719 L 36.75 19.875 L 36.3125 19.890625 L 35.871094 19.910156 L 35.871094 18.402344 L 36.78125 18.402344 Z M 34.625 21.894531 L 34.625 22.617188 L 33.773438 22.617188 L 33.773438 21.171875 L 34.625 21.171875 Z M 36.777344 21.894531 L 36.777344 22.617188 L 36.4375 22.621094 C 36.25 22.625 36.050781 22.632812 36 22.636719 C 35.910156 22.644531 35.898438 22.570312 35.882812 21.90625 L 35.863281 21.171875 L 36.777344 21.171875 Z M 36.777344 21.894531 "/>
</g>
</svg>
